<svg width="12" height="18" viewBox="0 0 12 18" fill="none" xmlns="http://www.w3.org/2000/svg">
<g clip-path="url(#clip0_253_1197)">
<path opacity="0.7" d="M7.26668 6.88181H11.0666L10.6445 8.5707H7.26668V16.1707H5.57779V8.5707H2.20001V6.88181H5.57779V5.30101C5.57779 3.79537 5.73485 3.24901 6.02872 2.69844C6.31668 2.15445 6.76153 1.7096 7.30552 1.42164C7.8561 1.12777 8.40245 0.970703 9.9081 0.970703C10.3489 0.970703 10.7357 1.01293 11.0666 1.09737V2.65959H9.9081C8.79005 2.65959 8.44974 2.72546 8.10267 2.91124C7.84596 3.04804 7.65512 3.23888 7.51832 3.49559C7.33254 3.84266 7.26668 4.18297 7.26668 5.30101V6.88181Z" fill="white" stroke="white" stroke-width="0.8"/>
</g>
<defs>
<clipPath id="clip0_253_1197">
<rect width="11" height="17" fill="white" transform="translate(0.840637 0.5)"/>
</clipPath>
</defs>
</svg>
