<svg width="18" height="16" viewBox="0 0 18 16" fill="none" xmlns="http://www.w3.org/2000/svg">
<path opacity="0.7" d="M13.3391 3.07108C13.1559 3.07108 12.9768 3.1254 12.8245 3.22719C12.6722 3.32896 12.5534 3.47362 12.4833 3.64287C12.4132 3.81212 12.3949 3.99836 12.4306 4.17803C12.4663 4.35771 12.5545 4.52275 12.6841 4.65229C12.8137 4.78182 12.9787 4.87005 13.1584 4.90579C13.338 4.94152 13.5243 4.92318 13.6935 4.85307C13.8628 4.78297 14.0074 4.66425 14.1092 4.51193C14.211 4.35961 14.2653 4.18052 14.2653 3.99733C14.2653 3.75167 14.1678 3.51608 13.994 3.34237C13.8203 3.16867 13.5847 3.07108 13.3391 3.07108ZM16.8897 4.93902C16.8747 4.29859 16.7548 3.66496 16.5346 3.06336C16.3384 2.54863 16.0329 2.08253 15.6393 1.69714C15.257 1.3015 14.7899 0.997956 14.273 0.809485C13.673 0.582678 13.0387 0.459987 12.3974 0.446703C11.5792 0.400391 11.3168 0.400391 9.21729 0.400391C7.11779 0.400391 6.85535 0.400391 6.03716 0.446703C5.39585 0.459987 4.76152 0.582678 4.1615 0.809485C3.64565 0.999866 3.17886 1.30315 2.79529 1.69714C2.39964 2.07936 2.0961 2.54655 1.90763 3.06336C1.68082 3.66338 1.55813 4.2977 1.54485 4.93902C1.49854 5.75721 1.49854 6.01965 1.49854 8.11914C1.49854 10.2187 1.49854 10.4811 1.54485 11.2993C1.55813 11.9406 1.68082 12.575 1.90763 13.175C2.0961 13.6918 2.39964 14.159 2.79529 14.5412C3.17886 14.9352 3.64565 15.2384 4.1615 15.4288C4.76152 15.6557 5.39585 15.7783 6.03716 15.7916C6.85535 15.8379 7.11779 15.8379 9.21729 15.8379C11.3168 15.8379 11.5792 15.8379 12.3974 15.7916C13.0387 15.7783 13.673 15.6557 14.273 15.4288C14.7899 15.2404 15.257 14.9368 15.6393 14.5412C16.0347 14.1572 16.3404 13.6907 16.5346 13.175C16.7548 12.5733 16.8747 11.9398 16.8897 11.2993C16.8897 10.4811 16.936 10.2187 16.936 8.11914C16.936 6.01965 16.936 5.75721 16.8897 4.93902ZM15.5003 11.2067C15.4947 11.6967 15.406 12.1821 15.2379 12.6424C15.1146 12.9783 14.9167 13.2818 14.659 13.53C14.4086 13.7852 14.1057 13.9827 13.7713 14.1089C13.3111 14.277 12.8256 14.3657 12.3356 14.3714C11.5638 14.41 11.2782 14.4177 9.24816 14.4177C7.21813 14.4177 6.93254 14.4177 6.16066 14.3714C5.65191 14.3809 5.14534 14.3025 4.66322 14.1398C4.3435 14.0072 4.05449 13.8101 3.81416 13.5609C3.55797 13.313 3.36249 13.0092 3.24297 12.6732C3.05452 12.2064 2.95 11.7099 2.93422 11.2067C2.93422 10.4348 2.88791 10.1492 2.88791 8.11914C2.88791 6.08911 2.88791 5.80352 2.93422 5.03165C2.93768 4.53074 3.02912 4.03434 3.20438 3.56508C3.34027 3.23928 3.54884 2.94886 3.81416 2.71602C4.04867 2.45063 4.33849 2.23985 4.66322 2.09852C5.13372 1.92874 5.62961 1.84 6.12979 1.83608C6.90166 1.83608 7.18725 1.78977 9.21729 1.78977C11.2473 1.78977 11.5329 1.78977 12.3048 1.83608C12.7948 1.8417 13.2802 1.93044 13.7405 2.09852C14.0912 2.2287 14.406 2.44035 14.659 2.71602C14.912 2.95312 15.1096 3.243 15.2379 3.56508C15.4095 4.0351 15.4983 4.5313 15.5003 5.03165C15.5389 5.80352 15.5466 6.08911 15.5466 8.11914C15.5466 10.1492 15.5389 10.4348 15.5003 11.2067ZM9.21729 4.15943C8.43446 4.16095 7.66965 4.39448 7.01949 4.8305C6.36933 5.26653 5.86301 5.88549 5.5645 6.60916C5.26598 7.33284 5.18865 8.12877 5.34232 8.89637C5.49597 9.66397 5.87371 10.3688 6.42779 10.9218C6.98187 11.4749 7.68744 11.8513 8.45533 12.0034C9.22323 12.1556 10.019 12.0766 10.7421 11.7767C11.4652 11.4768 12.0832 10.9693 12.5179 10.3183C12.9526 9.66724 13.1847 8.90197 13.1847 8.11914C13.1857 7.59821 13.0837 7.08222 12.8846 6.60084C12.6856 6.11945 12.3932 5.68219 12.0245 5.31419C11.6558 4.94619 11.2179 4.65472 10.7362 4.45655C10.2544 4.25837 9.73822 4.15739 9.21729 4.15943ZM9.21729 10.6895C8.70892 10.6895 8.21198 10.5388 7.78928 10.2564C7.36659 9.97388 7.03714 9.57244 6.8426 9.10277C6.64805 8.6331 6.59715 8.11629 6.69633 7.61769C6.79551 7.11909 7.04031 6.6611 7.39978 6.30164C7.75924 5.94217 8.21723 5.69737 8.71584 5.59819C9.21444 5.49901 9.73124 5.54991 10.2009 5.74446C10.6706 5.939 11.072 6.26845 11.3544 6.69114C11.6368 7.11383 11.7876 7.61078 11.7876 8.11914C11.7876 8.45669 11.7211 8.79092 11.592 9.10277C11.4628 9.41462 11.2734 9.69798 11.0348 9.93665C10.7961 10.1754 10.5128 10.3647 10.2009 10.4939C9.88906 10.623 9.55483 10.6895 9.21729 10.6895Z" fill="white"/>
</svg>
