<svg width="15" height="11" viewBox="0 0 15 11" fill="none" xmlns="http://www.w3.org/2000/svg">
<path opacity="0.7" d="M14.7143 2.54979C14.7143 2.54979 14.574 1.55643 14.1422 1.12026C13.5955 0.546198 12.9842 0.543378 12.7039 0.509608C10.6964 0.363281 7.68223 0.363281 7.68223 0.363281H7.67662C7.67662 0.363281 4.66251 0.363281 2.65498 0.509608C2.3746 0.543378 1.76336 0.546198 1.21662 1.12026C0.784832 1.55643 0.647446 2.54979 0.647446 2.54979C0.647446 2.54979 0.501648 3.71761 0.501648 4.88262V5.97446C0.501648 7.13948 0.644642 8.3073 0.644642 8.3073C0.644642 8.3073 0.784832 9.30063 1.21382 9.73679C1.76056 10.3109 2.47834 10.2912 2.79798 10.3531C3.94754 10.4628 7.67942 10.4966 7.67942 10.4966C7.67942 10.4966 10.6964 10.491 12.7039 10.3475C12.9842 10.3137 13.5955 10.3109 14.1422 9.73679C14.574 9.30063 14.7143 8.3073 14.7143 8.3073C14.7143 8.3073 14.8572 7.14229 14.8572 5.97446V4.88262C14.8572 3.71761 14.7143 2.54979 14.7143 2.54979ZM6.19621 7.29987V3.25048L10.0739 5.28221L6.19621 7.29987Z" fill="white"/>
</svg>
