<svg width="54" height="45" viewBox="0 0 54 45" fill="none" xmlns="http://www.w3.org/2000/svg">
<path d="M39.6069 42.0089C39.6299 41.7323 39.5839 41.4556 39.5437 41.2309L39.5322 41.179C39.3426 40.1128 39.4575 38.9659 39.8655 37.9631C39.9517 37.7441 40.0551 37.5308 40.1643 37.3061C40.3481 36.9199 40.5378 36.5222 40.6642 36.0842C40.7159 35.8998 40.7561 35.7096 40.7791 35.5252C41.1296 35.6635 41.5204 35.7211 41.9111 35.6808C42.7271 35.5943 43.4798 35.1275 44.1578 34.2976C44.6865 33.6463 44.5486 33.1565 44.4164 32.9259C44.1349 32.4303 43.543 32.3899 43.3419 32.3784C43.0603 32.3611 42.8018 32.3554 42.5489 32.3554C42.2386 32.3496 41.9456 32.3496 41.6295 32.3208C41.0722 32.2689 40.2964 32.0845 39.9057 31.8021C39.8022 31.7272 39.7276 31.6407 39.6414 31.5427C39.4805 31.3583 39.2794 31.1278 38.9059 30.9837C38.7737 30.9318 38.6473 30.903 38.5151 30.88C37.4923 29.1913 36.9924 27.3874 36.4178 25.3068C35.9868 23.745 35.5386 22.1312 34.8146 20.3792C34.8146 20.3792 33.6079 17.9816 28.873 15.6763C28.149 15.4804 27.3733 15.3247 26.4884 15.1922C25.2242 15.002 23.8739 14.9444 22.3626 15.0135C22.3626 15.0135 15.4213 15.4227 13.0136 16.1489C11.1001 16.3564 9.53144 16.4025 8.08341 16.2872C7.8708 16.2699 7.65245 16.2526 7.43984 16.2296C6.71007 16.1604 5.95732 16.0913 5.21607 16.1374C4.92301 16.1547 4.6472 16.2123 4.38287 16.3103C3.17618 16.6618 2.03844 17.8087 1.66494 19.0651C1.36039 20.0737 1.36039 21.2437 1.66494 22.6499C1.71091 22.8747 1.76837 23.0995 1.82008 23.3185C1.92926 23.7738 2.03269 24.206 2.09015 24.644C2.18209 25.3472 2.11889 25.9408 1.90053 26.4018C1.90053 26.4018 0.107726 27.0819 0.578912 29.2374C0.578912 29.2374 2.00971 29.3815 2.84865 26.8456C3.14745 26.2001 3.24513 25.4163 3.13021 24.5115C3.067 24.0158 2.95208 23.5375 2.83716 23.0707C2.78544 22.8574 2.73373 22.6384 2.68776 22.4252C2.51537 21.6125 2.45216 20.8979 2.50388 20.2697C2.55559 20.5578 2.62455 20.846 2.69925 21.1226L2.72798 21.2322H2.73373L4.24497 26.0964C3.26237 27.8312 2.9176 29.4506 3.2164 30.9088C3.31409 31.3814 3.48647 31.8482 3.72207 32.2804C3.67035 32.3727 3.57267 32.4764 3.47498 32.5801C3.31409 32.753 3.13596 32.949 3.01529 33.2141C2.83141 33.6175 2.86014 34.0498 2.88313 34.3956V34.4013C3.04402 36.8392 2.9176 39.2944 2.51537 41.7035C2.48089 41.8937 2.38896 42.4758 2.81992 42.8158C2.94633 42.9138 3.0785 42.9599 3.16469 42.9887C3.17618 42.9945 3.19342 43.0002 3.19917 43.0002C3.2279 43.0406 3.26812 43.127 3.29685 43.1846C3.30834 43.2135 3.32558 43.2423 3.34282 43.2769C2.81992 43.4267 2.30851 43.6111 1.80859 43.8359L2.23381 44.7926C4.41161 43.8128 6.85373 43.6918 9.27861 43.8474L12.2092 44.1356C12.3298 44.1529 12.4505 44.1644 12.5712 44.1759C15.2546 44.4929 18.0358 44.8272 20.7595 44.3258C21.5065 44.1875 22.2477 43.9857 22.9717 43.7956C23.2016 43.7379 23.4429 43.6745 23.6957 43.6111C24.006 43.5304 24.3566 43.4382 24.7588 43.3403C25.4253 43.1962 26.0804 43.0924 26.7527 43.0809H26.9079C27.9077 43.0867 28.896 43.2826 29.9418 43.4959C30.8497 43.6803 31.7921 43.8705 32.7517 43.9223C34.3262 44.003 35.9178 43.7091 37.4521 43.4209C39.7103 43.0002 41.8479 42.6025 43.8303 43.3691L44.2038 42.3893C42.7041 41.8187 41.1526 41.8187 39.6069 42.0089ZM38.8541 32.217C38.9633 32.3381 39.0955 32.4937 39.2908 32.6378C39.8827 33.07 40.871 33.289 41.5376 33.3524C41.8996 33.387 42.2214 33.387 42.5374 33.3928C42.7788 33.3928 43.0259 33.3985 43.2787 33.4158C43.3706 33.4216 43.4281 33.4331 43.4683 33.4389C43.4453 33.485 43.4108 33.5426 43.3476 33.6233C42.8535 34.2342 42.3306 34.5685 41.8019 34.6261C41.3537 34.6722 40.8998 34.4878 40.6584 34.1823C40.601 34.0267 40.5263 33.8769 40.4343 33.7443C40.2907 33.5311 40.0091 33.4562 39.7793 33.5657C39.5494 33.6752 39.4287 33.9403 39.5035 34.1881C39.5494 34.3495 39.6241 34.5051 39.7103 34.6492C39.7965 34.9604 39.7793 35.3638 39.6586 35.7788C39.5552 36.1361 39.3943 36.4761 39.2161 36.845C39.107 37.0755 38.992 37.3118 38.8944 37.5596C38.4117 38.7469 38.2738 40.0955 38.4979 41.3577L38.5094 41.4153C38.5496 41.6401 38.6013 41.9225 38.5266 42.0262C38.4519 42.1415 38.1588 42.1703 37.975 42.1818C37.998 41.9859 38.0094 41.7899 38.0209 41.594L36.9751 41.5421C36.9636 41.7496 36.9464 41.9571 36.9234 42.1645C36.8775 42.1588 36.8315 42.1472 36.7855 42.1357C36.4982 42.055 36.2684 41.8879 36.1822 41.6919C36.119 41.5421 36.1132 41.3461 36.1075 41.1214C36.1017 40.9946 36.1017 40.8678 36.0845 40.7295C35.9983 39.9399 35.6076 39.2944 35.234 38.672C34.964 38.2282 34.7111 37.8075 34.5847 37.3695C34.3089 36.4012 34.6479 35.2716 34.918 34.361C34.9697 34.1939 34.9295 34.0094 34.8203 33.8769C34.7226 33.7558 34.5732 33.6867 34.4181 33.6867C34.4009 33.6867 34.3779 33.6867 34.3606 33.6867C33.8952 33.7386 33.1712 33.6521 32.5966 33.3351C32.1541 33.0931 31.7863 32.7012 31.5565 32.2516C32.1828 32.0096 32.9068 32.0153 33.5274 32.2804C33.6136 32.3208 33.7056 32.3611 33.7975 32.413C33.8033 32.4188 33.809 32.4303 33.8147 32.436L33.8205 32.4303C33.8492 32.4476 33.878 32.4591 33.9067 32.4764C34.0963 32.5744 34.2859 32.6781 34.5043 32.7588C35.0329 32.9605 35.5501 32.9547 35.9581 32.7473C36.2741 32.5859 36.5729 32.3438 36.8142 32.0499C36.9004 31.9462 37.0498 31.9346 37.3716 31.9289C37.4693 31.9289 37.5785 31.9289 37.6819 31.9173C37.9807 31.8943 38.291 31.8712 38.5266 31.9577C38.6588 31.998 38.722 32.0672 38.8541 32.217ZM3.43476 19.0479C3.43476 19.0421 3.43476 19.0363 3.43476 19.0306C3.43476 19.0306 3.43476 19.0306 3.43476 19.0248C3.48647 18.0335 4.27944 17.2382 5.26779 17.1805C5.92859 17.1402 6.64687 17.2094 7.33641 17.2728C7.55476 17.29 7.77886 17.3131 7.99722 17.3304C9.5142 17.4514 11.1404 17.4053 13.1228 17.1921C13.1228 17.1921 20.5756 16.074 22.4086 16.0625C23.8509 15.9991 25.1323 16.0509 26.3332 16.2296C27.1722 16.3564 27.9134 16.5062 28.5972 16.6907C28.5972 16.6907 33.1597 18.9211 33.8435 20.7826C34.5445 22.477 34.9812 24.0562 35.4064 25.5892C35.9236 27.4508 36.412 29.2201 37.3084 30.88C36.9119 30.8857 36.3948 30.9145 36.0098 31.3814C35.8604 31.5658 35.6765 31.7156 35.4869 31.8078C35.3432 31.877 35.1191 31.8655 34.872 31.7733C34.7284 31.7214 34.5905 31.6465 34.4411 31.5716C33.016 29.9809 32.1139 28.0271 31.8955 26.0503L30.8555 26.1656C31.0393 27.8657 31.6829 29.5486 32.6942 31.0413C31.9702 31.0067 31.2405 31.1796 30.6199 31.5485C30.4188 31.6695 30.3211 31.9173 30.39 32.1479C30.6199 32.9317 31.1255 33.6175 31.7921 34.0786C31.4128 34.3034 30.9876 34.4417 30.5567 34.4705C29.8327 34.5224 29.0684 34.263 28.5225 33.7789C28.3329 33.6118 28.1548 33.41 27.9709 33.2026C27.8617 33.0815 27.7525 32.949 27.6319 32.828C27.4193 32.6032 27.1147 32.315 26.724 32.1133C26.7872 31.9865 26.8619 31.8655 26.9481 31.756C27.1664 31.4851 27.4652 31.2603 27.787 31.024C27.879 30.9549 27.9709 30.8915 28.0571 30.8223C28.4881 30.4938 29.0052 30.027 29.2293 29.3642L28.2352 29.0357C28.1031 29.4276 27.7296 29.7503 27.4193 29.9924C27.3331 30.0558 27.2469 30.1192 27.1607 30.1826C26.7987 30.4477 26.4252 30.7243 26.1264 31.1047C25.5632 31.8136 25.4024 32.6954 25.3277 33.3755C25.253 34.0382 25.161 34.6088 25.0403 35.1333C24.891 35.7788 24.6841 36.5222 24.2819 37.1389C24.2531 37.185 24.2186 37.2311 24.1899 37.2772C24.075 37.4501 23.9428 37.6461 23.8509 37.8766C23.7245 38.1994 23.7015 38.5336 23.7015 38.7872C23.6957 39.0235 23.7072 39.2541 23.713 39.4731C23.7245 39.7497 23.736 40.0091 23.7187 40.2684C23.7187 40.3145 23.713 40.3606 23.7072 40.4067C23.69 40.6545 23.667 40.9427 23.7475 41.2424C23.8337 41.5536 24.0578 41.836 24.2359 42.0666C24.2819 42.1242 24.3278 42.1818 24.3623 42.2279C24.391 42.2683 24.4198 42.3086 24.4485 42.3432C24.4485 42.3432 24.4485 42.3432 24.4485 42.349C23.9141 42.47 23.3855 42.6083 22.8626 42.7524C23.2418 40.0091 23.4084 38.1878 23.351 37.3349C23.328 37.0064 23.2878 36.6836 23.2418 36.3666C23.1901 35.969 23.1384 35.6001 23.1326 35.2255C23.1211 34.7183 23.1901 34.1996 23.259 33.6521C23.3855 32.6839 23.5119 31.6868 23.1958 30.6955C23.1269 30.4823 23.0464 30.2863 22.9602 30.0904C22.8223 29.7619 22.6902 29.4449 22.6787 29.151C22.6614 28.5343 22.9947 28.2403 23.6785 27.6813C24.3968 27.0992 25.546 25.6526 25.7874 24.6152L24.7703 24.3732C24.6036 25.0821 23.667 26.3385 23.0234 26.8629C22.3282 27.4277 21.6099 28.0156 21.6386 29.1682C21.6501 29.6639 21.8397 30.1019 22.0006 30.4938C22.0753 30.6725 22.15 30.8396 22.2017 31.0067C22.2247 31.0759 22.242 31.1451 22.2592 31.2085C20.34 32.0845 18.1507 32.3957 16.0648 32.0787C14.0249 31.7733 12.0655 30.8627 10.5025 29.5083C10.514 29.4506 10.5198 29.3988 10.5255 29.3411C10.8646 27.0473 10.6519 25.2204 9.87047 23.7565L8.95108 24.2521C9.62338 25.5085 9.79577 27.1223 9.49696 29.1855C9.38779 29.9175 9.23264 30.6667 9.0775 31.3929C8.86489 32.4072 8.64653 33.4504 8.5431 34.5166C8.53161 34.6088 8.52586 34.7068 8.52012 34.799C8.34773 37.1447 8.77295 39.5192 9.7498 41.6574C9.81875 41.8014 9.94517 41.9109 10.1061 41.9513C10.629 42.0781 11.0427 42.5276 11.3472 42.9945C11.3415 42.9945 11.3357 42.9945 11.33 42.9945C10.6979 42.9253 10.0543 42.8619 9.41077 42.8216C8.83041 40.1128 7.81334 37.5424 6.38254 35.1679C6.19866 34.8624 6.13546 34.5051 6.19866 34.1535C6.2159 34.0671 6.2274 33.9749 6.23889 33.8884C6.5262 32.0038 6.37105 29.9463 5.76196 27.5949C5.72748 27.4565 5.68726 27.3125 5.64129 27.1568L3.68759 20.8748C3.52095 20.1775 3.41177 19.6127 3.43476 19.0479ZM26.6263 41.2366C26.9251 41.5133 27.0917 41.7553 27.1779 42.032H26.9481C26.8849 42.032 26.8274 42.032 26.7642 42.032C26.7527 42.032 26.7412 42.032 26.7297 42.032L25.7644 42.0377C25.7356 42.032 25.7127 42.0205 25.7012 42.0089C25.6954 42.0032 25.6954 41.9974 25.6954 41.9859C25.7356 41.5363 25.8506 40.8793 25.9368 40.401L25.9425 40.3779C26.2815 38.4645 26.247 36.5222 26.2068 34.6376C26.27 34.2745 26.3275 33.8884 26.3735 33.4734C26.385 33.3639 26.4022 33.2487 26.4194 33.1334C26.5631 33.2314 26.7182 33.3639 26.8791 33.5368C26.9826 33.6463 27.086 33.7616 27.1894 33.8826C27.3848 34.1074 27.5916 34.3437 27.833 34.5569C27.7008 35.2485 27.5572 35.9459 27.379 36.626C27.3101 36.8853 27.2354 37.1504 27.0917 37.2772C27.0745 37.2945 27.0515 37.3118 27.0228 37.3291C26.9308 37.3983 26.7987 37.502 26.701 37.6576C26.5516 37.8939 26.5458 38.1475 26.5401 38.3089L26.4539 40.8332C26.4539 40.9888 26.5171 41.1329 26.6263 41.2366ZM24.7703 40.9542C24.7358 40.8274 24.7473 40.6545 24.7645 40.4701C24.7703 40.4182 24.7703 40.3664 24.776 40.3145C24.7933 40.0091 24.7818 39.7094 24.7703 39.4154C24.7588 39.1964 24.753 38.9947 24.7588 38.793C24.7645 38.6143 24.776 38.4126 24.8392 38.2455C24.8852 38.1244 24.9771 37.9919 25.0691 37.8536C25.1036 37.8017 25.138 37.7498 25.1725 37.7037C25.138 38.5452 25.0691 39.3808 24.9254 40.1992L24.9197 40.2223C24.8795 40.4471 24.8335 40.7122 24.7875 40.9831C24.776 40.9715 24.776 40.96 24.7703 40.9542ZM10.152 34.1708C9.98539 34.2112 9.813 34.24 9.63487 34.263C9.7383 33.3697 9.92793 32.4764 10.1118 31.6004C10.175 31.2949 10.2382 30.9895 10.3014 30.6782C11.1346 31.3295 12.0598 31.8712 13.0309 32.2862C12.3241 33.2141 11.284 33.8999 10.152 34.1708ZM4.68168 27.5372C4.71041 27.641 4.73914 27.7447 4.76212 27.8427C5.23331 29.6466 5.41719 31.2603 5.32525 32.7415C4.77361 32.1536 4.38288 31.439 4.23348 30.6955C4.03811 29.7446 4.18751 28.6841 4.68168 27.5372ZM3.53819 41.8764C3.95191 39.3866 4.07833 36.8508 3.91744 34.3322V34.3264C3.9002 34.0613 3.88296 33.8135 3.95766 33.6463C4.00937 33.5368 4.11855 33.4158 4.23348 33.289C4.26221 33.2544 4.29094 33.2256 4.32541 33.191C4.5725 33.4907 4.85981 33.7731 5.1701 34.021C5.08965 34.5685 5.18734 35.1218 5.45166 35.6059C4.50354 37.5596 4.08982 39.8016 4.29668 41.9628C4.31967 42.2049 4.50929 42.4008 4.75063 42.4354C5.03219 42.47 5.28502 42.5968 5.48039 42.7927C5.37122 42.81 5.26204 42.8273 5.13562 42.8446C5.05518 42.8561 4.97473 42.8677 4.87705 42.8849C4.81958 42.8965 4.75638 42.9022 4.69891 42.9138C4.43459 42.9599 4.35989 42.9656 4.32541 42.9311C4.30243 42.9022 4.25646 42.8043 4.22773 42.7409C4.13004 42.5334 3.99788 42.251 3.71057 42.0954C3.63587 42.055 3.56692 42.0262 3.50946 42.0089C3.5267 41.9743 3.53244 41.934 3.53819 41.8764ZM6.70433 42.7639C6.44 42.153 5.93434 41.6862 5.30801 41.4845C5.21032 39.8765 5.48614 38.234 6.08949 36.7355C7.10656 38.6316 7.85931 40.6488 8.33624 42.7524C7.7961 42.7351 7.25021 42.7409 6.70433 42.7639ZM20.5698 43.2999C18.0013 43.7725 15.3006 43.4498 12.6918 43.1385C12.6746 43.1385 12.6516 43.1328 12.6344 43.1328C12.2379 42.2913 11.5943 41.3519 10.6232 41.0003C9.84748 39.2195 9.48547 37.2715 9.55443 35.3292C9.80151 35.3062 10.0486 35.2716 10.2957 35.214C10.3129 35.2601 10.3302 35.3062 10.3417 35.3581C10.4106 35.5598 10.4796 35.7615 10.5945 36.0842L11.5771 35.7269C11.4679 35.4214 11.3989 35.2197 11.3357 35.0238C11.3242 34.9834 11.307 34.9431 11.2955 34.9027C11.5081 34.8163 11.7207 34.7126 11.9276 34.5973C12.0368 34.7932 12.1345 34.9489 12.3126 35.2197L12.4275 35.3926L13.3067 34.8278L13.1918 34.6492C13.0021 34.3552 12.9102 34.2111 12.801 34.0094C13.2837 33.6233 13.7147 33.168 14.0652 32.6608C14.6743 32.8568 15.3006 33.0066 15.9384 33.1046C16.5245 33.191 17.1106 33.2372 17.7025 33.2372C19.2999 33.2372 20.9031 32.9202 22.3741 32.3035C22.3569 32.6896 22.3052 33.0873 22.2535 33.4965C22.1788 34.0613 22.1041 34.6434 22.1155 35.2313C22.127 35.6635 22.1788 36.0842 22.2362 36.4877C22.2764 36.7989 22.3167 37.087 22.3339 37.381C22.3684 37.9227 22.3109 39.2771 21.8455 42.6602C21.8282 42.7754 21.834 42.8965 21.857 43.0117C21.4203 43.1212 20.9893 43.2192 20.5698 43.2999ZM32.8092 42.8792C31.93 42.8331 31.0623 42.6602 30.1544 42.47C29.5396 42.3432 28.9075 42.2164 28.2697 42.13C28.1778 41.4441 27.8445 40.9773 27.5169 40.6373L27.5916 38.3435C27.5916 38.3089 27.5974 38.2455 27.6031 38.2109C27.6204 38.1994 27.6491 38.1763 27.6663 38.159C27.7008 38.1302 27.741 38.1014 27.787 38.0611C28.1605 37.7383 28.2984 37.283 28.4019 36.8796C28.5455 36.309 28.6719 35.7327 28.7868 35.1621C29.2868 35.3869 29.8327 35.5079 30.3785 35.5079C30.4647 35.5079 30.5509 35.5079 30.6371 35.5021C31.4703 35.4445 32.2633 35.1102 32.8896 34.5685C33.1769 34.6492 33.4642 34.701 33.7286 34.7241C33.4815 35.6232 33.2976 36.649 33.5849 37.6519C33.7515 38.2282 34.0561 38.7296 34.3491 39.208C34.6824 39.7555 34.9985 40.2742 35.0559 40.8332C35.0674 40.9312 35.0674 41.0349 35.0732 41.1502C35.0846 41.4384 35.0904 41.7726 35.234 42.1011C35.326 42.3201 35.4696 42.5161 35.6478 42.6775C34.6882 42.8273 33.7343 42.9253 32.8092 42.8792Z" fill="#036C17"/>
<path d="M35.7856 34.9144L35.3202 35.8538C35.5788 35.9864 35.7856 36.2285 35.8661 36.5109L36.8717 36.2285C36.7108 35.6637 36.3085 35.1738 35.7856 34.9144Z" fill="#036C17"/>
<path d="M52.6908 43.1613C52.6908 43.0621 52.53 43.0621 52.53 42.957C52.53 42.8578 52.6334 42.8578 52.6334 42.7527C52.6334 42.6535 53.2883 42.6535 53.2883 42.5484C53.2883 42.4492 52.9896 42.4492 52.9149 42.3791C52.8459 42.3091 52.8517 42.3616 52.754 42.3616C52.6564 42.3616 52.6563 42.6944 52.5587 42.6944C52.461 42.6944 52.461 42.2507 52.3633 42.2507C52.2657 42.2507 52.2657 42.4317 52.168 42.4317C52.0703 42.4317 52.0703 42.1573 51.9727 42.1573C51.875 42.1573 51.875 42.8636 51.7773 42.8636C51.6797 42.8636 51.6796 42.6477 51.582 42.6477C51.4843 42.6477 51.4843 42.1865 51.3866 42.1865C51.289 42.1865 51.289 42.455 51.1913 42.455C51.0936 42.455 51.0936 41.9297 50.996 41.9297C50.8983 41.9297 50.8983 42.3149 50.8006 42.3149C50.703 42.3149 50.7029 42.1515 50.6053 42.1515C50.5076 42.1515 50.5076 42.8636 50.4157 42.8636C50.318 42.8636 50.318 41.918 50.2203 41.918C50.1227 41.918 50.1227 42.4375 50.025 42.4375C49.9848 42.4375 49.9618 42.4609 49.9388 42.49C50.0825 41.1066 50.6398 39.7699 50.6398 39.7699C50.6398 39.7699 49.9331 40.4937 49.4562 41.9413L49.4505 41.9355C49.3528 41.9355 49.3528 42.3383 49.2551 42.3383C49.1575 42.3383 49.1575 42.1982 49.0598 42.1982C48.9621 42.1982 48.9621 42.7761 48.8645 42.7761C48.7668 42.7761 48.7668 42.0581 48.6691 42.0581C48.5714 42.0581 48.5714 41.9822 48.4738 41.9822C48.3761 41.9822 48.3761 42.7936 48.2784 42.7936C48.244 42.7936 48.221 42.7761 48.2038 42.7469C48.1635 40.5696 49.2034 38.0829 49.2034 38.0829C49.2034 38.0829 47.6867 39.6239 47.1696 42.7411C47.1581 42.7644 47.1409 42.7819 47.1236 42.7819C47.026 42.7819 47.026 42.6243 46.9283 42.6243C46.8306 42.6243 46.8306 42.4434 46.733 42.4434C46.6353 42.4434 46.6353 42.1456 46.5434 42.1456C46.5089 42.1456 46.4859 42.1923 46.4687 42.2507C45.9229 40.447 45.0438 39.548 45.0438 39.548C45.0438 39.548 45.5322 40.7213 45.762 42.0756C45.6816 42.1456 45.6758 42.8053 45.5839 42.8053C45.4862 42.8053 45.4862 42.5017 45.3886 42.5017C45.2909 42.5017 45.2909 42.6593 45.1932 42.6593C45.0956 42.6593 45.0955 41.953 44.9979 41.953C44.9519 41.953 44.9289 42.0347 44.9117 42.1223C44.3831 40.0851 43.3892 39.0694 43.3892 39.0694C43.3892 39.0694 44.1418 40.8789 44.2165 42.6068C44.1361 42.5893 44.1303 42.455 44.0384 42.455C43.9407 42.455 43.9407 42.0639 43.8488 42.0639C43.7511 42.0639 43.7511 42.3908 43.6592 42.3908C43.6535 42.3908 43.6477 42.3967 43.6362 42.3967C43.0675 39.5072 41.6656 38.077 41.6656 38.077C41.6656 38.077 42.5331 40.1668 42.6538 42.1923C42.6021 42.2157 42.5849 42.2624 42.5102 42.2624C42.4125 42.2624 42.4125 42.1165 42.3206 42.1165C42.2286 42.1165 42.2229 42.5017 42.1367 42.5309C41.6828 40.6746 40.7808 39.7523 40.7808 39.7523C40.7808 39.7523 41.4128 41.27 41.499 42.7469C41.4473 42.6418 41.43 42.385 41.3554 42.385C41.2577 42.385 41.2577 41.8421 41.1658 41.8421C41.0681 41.8421 41.0681 41.918 40.9762 41.918C40.8785 41.918 40.8785 42.6885 40.7866 42.6885C40.6889 42.6885 40.6889 41.9063 40.597 41.9063C40.4993 41.9063 40.4993 42.0347 40.4074 42.0347C40.3097 42.0347 40.3097 42.6243 40.2178 42.6243C40.1201 42.6243 40.1201 42.42 40.0282 42.42C39.9305 42.42 39.9305 42.2157 39.8386 42.2157C39.7409 42.2157 39.7409 42.3383 39.649 42.3383C39.5513 42.3383 39.5513 42.8228 39.4537 42.8228C39.356 42.8228 39.356 41.8596 39.2583 41.8596C39.1607 41.8596 39.1607 42.1515 39.0687 42.1515C38.9711 42.1515 38.9711 42.5484 38.8791 42.5484C38.7815 42.5484 38.7815 42.1165 38.6895 42.1165C38.5919 42.1165 38.5919 42.204 38.5 42.204C38.408 42.204 38.4023 42.0056 38.3104 42.0056C38.2127 42.0056 38.2127 41.8655 38.1208 41.8655C38.0231 41.8655 38.0231 42.5134 37.9312 42.5134C37.8335 42.5134 37.8335 42.7819 37.7416 42.7819C37.6497 42.7819 37.6439 42.4025 37.552 42.4025C37.4601 42.4025 37.4543 41.9005 37.3624 41.9005C37.2647 41.9005 37.2647 42.5776 37.1728 42.5776C37.0809 42.5776 37.0751 42.134 36.9832 42.134C36.8855 42.134 36.8855 42.5659 36.7936 42.5659C36.7017 42.5659 36.6959 42.1281 36.604 42.1281C36.5063 42.1281 36.5063 42.239 36.4144 42.239C36.3167 42.239 36.3167 42.7878 36.2248 42.7878C36.1271 42.7878 36.1271 41.8479 36.0352 41.8479C35.9376 41.8479 35.9375 42.8286 35.8399 42.8286C35.7422 42.8286 35.7422 42.8053 35.6503 42.8053C35.5526 42.8053 35.5526 41.9355 35.4607 41.9355C35.363 41.9355 35.363 42.6126 35.2711 42.6126C35.1792 42.6126 35.1734 42.7352 35.0815 42.7352C34.9838 42.7352 34.9838 42.2507 34.8919 42.2507C34.8 42.2507 34.7942 42.2857 34.7023 42.2857C34.6104 42.2857 34.6046 42.5543 34.5127 42.5543C34.4208 42.5543 34.4151 42.1165 34.3231 42.1165C34.2255 42.1165 34.2255 42.8345 34.1335 42.8345C34.0359 42.8345 34.0359 41.9589 33.9439 41.9589C33.8463 41.9589 33.8463 42.8286 33.7543 42.8286C33.6567 42.8286 33.6567 42.7177 33.5647 42.7177C33.4671 42.7177 33.4671 42.7235 33.3752 42.7235C33.2832 42.7235 33.2775 41.9764 33.1856 41.9764C33.0879 41.9764 33.0879 42.2566 32.996 42.2566C32.904 42.2566 32.8983 42.6652 32.8064 42.6652C32.7087 42.6652 32.7087 42.4375 32.6168 42.4375C32.5191 42.4375 32.5191 41.9005 32.4272 41.9005C32.3295 41.9005 32.3295 41.9764 32.2376 41.9764C32.1399 41.9764 32.1399 42.0056 32.048 42.0056C31.9503 42.0056 31.9503 41.9063 31.8584 41.9063C31.7665 41.9063 31.7607 41.9997 31.6688 41.9997C31.5711 41.9997 31.5711 42.1923 31.4792 42.1923C31.3873 42.1923 31.3815 42.2215 31.2896 42.2215C31.1919 42.2215 31.1919 42.1515 31.1 42.1515C31.0023 42.1515 31.0023 42.5834 30.9104 42.5834C30.8185 42.5834 30.8128 41.8421 30.7208 41.8421C30.6289 41.8421 30.6232 42.7469 30.5312 42.7469C30.4393 42.7469 30.4336 42.1165 30.3416 42.1165C30.244 42.1165 30.244 42.0814 30.152 42.0814C30.0601 42.0814 30.0544 42.7936 29.9625 42.7936C29.8705 42.7936 29.8648 42.0464 29.7729 42.0464C29.6809 42.0464 29.6752 42.5776 29.5833 42.5776C29.4856 42.5776 29.4856 42.2974 29.3937 42.2974C29.296 42.2974 29.296 42.0231 29.2041 42.0231C29.1064 42.0231 29.1064 42.0873 29.0145 42.0873C28.9168 42.0873 28.9168 42.3558 28.8249 42.3558C28.7272 42.3558 28.7272 42.5309 28.6353 42.5309C28.5434 42.5309 28.5376 42.8636 28.4457 42.8636C28.348 42.8636 28.348 42.7294 28.2561 42.7294C28.1642 42.7294 28.1584 41.9589 28.0665 41.9589C27.9688 41.9589 27.9688 42.49 27.8769 42.49C27.785 42.49 27.7792 42.4725 27.6873 42.4725C27.5896 42.4725 27.5896 42.6827 27.4977 42.6827C27.4001 42.6827 27.4 41.9122 27.3081 41.9122C27.2162 41.9122 27.2105 41.9997 27.1185 41.9997C27.0209 41.9997 27.0209 42.3441 26.9289 42.3441C26.837 42.3441 26.8313 42.0581 26.7393 42.0581C26.6474 42.0581 26.6417 42.5893 26.5497 42.5893C26.4521 42.5893 26.4521 42.7994 26.3602 42.7994C26.2682 42.7994 26.2625 42.239 26.1706 42.239C26.0729 42.239 26.0729 42.0522 25.981 42.0522C25.8833 42.0522 25.8833 42.1865 25.7914 42.1865C25.6937 42.1865 25.6937 42.4142 25.6018 42.4142C25.5041 42.4142 25.5041 42.2624 25.4122 42.2624C25.3203 42.2624 25.3145 42.1456 25.2226 42.1456C25.1249 42.1456 25.1249 42.852 25.033 42.852C24.9411 42.852 24.9353 42.2857 24.8434 42.2857C24.7457 42.2857 24.7457 42.8111 24.6538 42.8111C24.5561 42.8111 24.5561 42.8403 24.4642 42.8403C24.3665 42.8403 24.3665 42.6593 24.2746 42.6593C24.1827 42.6593 24.1769 42.2682 24.085 42.2682C23.9931 42.2682 23.9873 42.0056 23.8954 42.0056C23.7978 42.0056 23.7978 42.8461 23.7058 42.8461C23.6082 42.8461 23.6082 42.35 23.5162 42.35C23.4186 42.35 23.4186 42.6243 23.3266 42.6243C23.229 42.6243 23.229 42.3791 23.137 42.3791C23.0394 42.3791 23.0394 41.9122 22.9474 41.9122C22.8498 41.9122 22.8498 42.49 22.7579 42.49C22.6659 42.49 22.6602 42.385 22.5683 42.385C22.4706 42.385 22.4706 42.1748 22.3787 42.1748C22.281 42.1748 22.281 42.3149 22.1891 42.3149C22.0971 42.3149 22.0914 42.0639 21.9995 42.0639C21.9018 42.0639 21.9018 42.7352 21.8099 42.7352C21.7122 42.7352 21.7122 42.0756 21.6203 42.0756C21.5226 42.0756 21.5226 42.4492 21.4307 42.4492C21.333 42.4492 21.333 42.5017 21.2411 42.5017C21.1434 42.5017 21.1434 42.0522 21.0515 42.0522C20.9538 42.0522 20.9538 42.6185 20.8619 42.6185C20.7642 42.6185 20.7642 42.7586 20.6723 42.7586C20.5746 42.7586 20.5746 41.883 20.4827 41.883C20.385 41.883 20.385 42.8111 20.2931 42.8111C20.1955 42.8111 20.1955 42.0989 20.1035 42.0989C20.0059 42.0989 20.0059 42.7936 19.9139 42.7936C19.8163 42.7936 19.8163 42.3208 19.7243 42.3208C19.6267 42.3208 19.6267 42.4258 19.5347 42.4258C19.4371 42.4258 19.4371 41.8596 19.3451 41.8596C19.2475 41.8596 19.2475 42.3091 19.1556 42.3091C19.0579 42.3091 19.0579 42.5776 18.966 42.5776C18.8683 42.5776 18.8683 42.8228 18.7764 42.8228C18.6844 42.8228 18.6787 42.3616 18.5868 42.3616C18.4891 42.3616 18.4891 41.9297 18.3972 41.9297C18.2995 41.9297 18.2995 42.0756 18.2076 42.0756C18.1099 42.0756 18.1099 42.4142 18.018 42.4142C17.9203 42.4142 17.9203 42.239 17.8284 42.239C17.7365 42.239 17.7307 42.636 17.6388 42.636C17.5469 42.636 17.5411 42.0056 17.4492 42.0056C17.3515 42.0056 17.3515 42.1223 17.2596 42.1223C17.1677 42.1223 17.1619 42.636 17.07 42.636C16.9723 42.636 16.9723 42.8345 16.8804 42.8345C16.7828 42.8345 16.7827 42.4609 16.6908 42.4609C16.5932 42.4609 16.5932 41.8304 16.5012 41.8304C16.4093 41.8304 16.4036 42.8228 16.3116 42.8228C16.214 42.8228 16.214 42.7002 16.122 42.7002C16.0301 42.7002 16.0244 42.169 15.9324 42.169C15.8348 42.169 15.8348 41.9355 15.7429 41.9355C15.6452 41.9355 15.6452 41.8946 15.5533 41.8946C15.4613 41.8946 15.4556 41.9355 15.3637 41.9355C15.266 41.9355 15.266 41.9764 15.1741 41.9764C15.0764 41.9764 15.0764 42.2566 14.9845 42.2566C14.8868 42.2566 14.8868 42.0989 14.7949 42.0989C14.6972 42.0989 14.6972 42.852 14.6053 42.852C14.5076 42.852 14.5076 41.8713 14.4157 41.8713C14.318 41.8713 14.318 42.4784 14.2261 42.4784C14.1284 42.4784 14.1284 42.2857 14.0365 42.2857C13.9388 42.2857 13.9388 42.636 13.8469 42.636C13.7492 42.636 13.7492 41.9297 13.6573 41.9297C13.5596 41.9297 13.5596 42.5484 13.4677 42.5484C13.37 42.5484 13.37 42.1982 13.2781 42.1982C13.1805 42.1982 13.1805 42.5834 13.0885 42.5834C12.9966 42.5834 12.9909 42.5192 12.8989 42.5192C12.8013 42.5192 12.8013 42.1281 12.7093 42.1281C12.6117 42.1281 12.6117 42.0114 12.5197 42.0114C12.4278 42.0114 12.4221 42.455 12.3301 42.455C12.2382 42.455 12.2325 42.3967 12.1406 42.3967C12.0486 42.3967 12.0429 42.6418 11.951 42.6418C11.8533 42.6418 11.8533 41.9355 11.7614 41.9355C11.6637 41.9355 11.6637 42.2916 11.5718 42.2916C11.4741 42.2916 11.4741 42.671 11.3822 42.671C11.2845 42.671 11.2845 42.6827 11.1926 42.6827C11.0949 42.6827 11.0949 42.1807 11.003 42.1807C10.9111 42.1807 10.9053 42.1106 10.8134 42.1106C10.7215 42.1106 10.7157 42.7586 10.6238 42.7586C10.5261 42.7586 10.5261 41.9005 10.4342 41.9005C10.3365 41.9005 10.3365 42.7936 10.2446 42.7936C10.1469 42.7936 10.1469 42.8169 10.055 42.8169C9.95734 42.8169 9.95734 42.455 9.86542 42.455C9.77349 42.455 9.76775 41.918 9.67582 41.918C9.57815 41.918 9.57815 42.5484 9.48623 42.5484C9.3943 42.5484 9.38856 41.8479 9.29663 41.8479C9.20471 41.8479 9.19896 42.6768 9.10704 42.6768C9.00937 42.6768 9.00937 42.706 8.91745 42.706C8.82552 42.706 8.81977 42.8053 8.72785 42.8053C8.63018 42.8053 8.63018 42.7761 8.53826 42.7761C8.44059 42.7761 8.44059 42.0989 8.34866 42.0989C8.25099 42.0989 8.25099 42.8461 8.15907 42.8461C8.06714 42.8461 8.0614 42.8636 7.96947 42.8636C7.87755 42.8636 7.8718 42.8578 7.77988 42.8578C7.68795 42.8578 7.68221 42.3208 7.59028 42.3208C7.49836 42.3208 7.49261 42.2099 7.40069 42.2099C7.30302 42.2099 7.30302 42.2332 7.21109 42.2332C7.11917 42.2332 7.11342 41.9939 7.0215 41.9939C6.92957 41.9939 6.92383 42.887 6.8319 42.887C6.73998 42.887 6.73423 42.7761 6.64231 42.7761C6.55038 42.7761 6.54464 42.5251 6.45271 42.5251C6.35504 42.5251 6.35504 42.2974 6.26312 42.2974C6.1712 42.2974 6.16545 42.0231 6.07353 42.0231C5.97586 42.0231 5.97585 41.9297 5.88393 41.9297C5.78626 41.9297 5.78626 42.455 5.69434 42.455C5.59667 42.455 5.59667 42.8286 5.50474 42.8286C5.40707 42.8286 5.40707 42.3033 5.31515 42.3033C5.21748 42.3033 5.21748 42.3733 5.12555 42.3733C5.03363 42.3733 5.02788 42.7702 4.93596 42.7702C4.83829 42.7702 4.83829 41.8713 4.74636 41.8713C4.64869 41.8713 4.64869 42.3266 4.55677 42.3266C4.4591 42.3266 4.4591 42.49 4.36717 42.49C4.2695 42.49 4.2695 41.9764 4.17758 41.9764C4.07991 41.9764 4.07991 42.8345 3.98798 42.8345C3.89031 42.8345 3.89031 42.1223 3.79839 42.1223C3.70072 42.1223 3.70072 42.887 3.6088 42.887C3.51687 42.887 3.51113 42.887 3.4192 42.887C3.32728 42.887 3.32153 42.5426 3.22961 42.5426C3.13768 42.5426 3.13194 42.2507 3.04001 42.2507C2.94234 42.2507 2.94234 42.3675 2.85042 42.3675C2.75849 42.3675 2.75275 42.3383 2.66082 42.3383C2.56315 42.3383 2.56315 42.0873 2.47123 42.0873C2.3793 42.0873 2.37356 42.1807 2.28163 42.1807C2.18396 42.1807 2.18396 42.2507 2.09204 42.2507C1.99437 42.2507 1.99437 42.1106 1.90244 42.1106C1.80477 42.1106 1.80477 42.3033 1.71285 42.3033C1.61518 42.3033 1.48304 42.1982 1.41409 42.2682C1.34515 42.3441 2.00011 42.4725 2.00011 42.5776C2.00011 42.6768 1.95415 42.6768 1.95415 42.7819C1.95415 42.8812 1.04065 42.8812 1.04065 42.9862C1.04065 43.0913 1.04065 43.0855 1.04065 43.1905C1.04065 43.2898 1.74732 43.2898 1.74732 43.3948C1.74732 43.4941 1.06363 43.4941 1.06363 43.5991C1.06363 43.6984 1.37962 43.6984 1.37962 43.8035C1.37962 43.9027 1.27046 44.1128 1.3394 44.1829C1.39686 44.2413 1.55198 44.0369 1.6554 43.9669V45.0001H53.4205V43.4766C53.5469 43.4532 53.656 43.4299 53.656 43.389C53.3171 43.2664 52.6908 43.2664 52.6908 43.1613Z" fill="#036C17"/>
<path d="M19.0373 8.52752C19.1441 8.20884 19.3465 7.93738 19.6051 7.74263C18.1997 7.34724 17.1596 6.00172 17.1596 4.40244C17.1596 2.49039 18.6381 0.938322 20.4596 0.938322C21.9662 0.938322 23.2367 2.00057 23.6302 3.45232C23.1748 3.83591 22.7982 4.31982 22.534 4.87455C23.4166 4.90996 24.1867 5.38798 24.6533 6.10204C24.1699 5.61813 23.5177 5.31716 22.7982 5.31716C21.5333 5.31716 20.4708 6.23778 20.1897 7.47707C20.2965 7.45347 20.4033 7.44166 20.5158 7.44166C21.3871 7.44166 22.0898 8.17934 22.0898 9.09405C22.0898 9.15307 22.0898 9.20618 22.0842 9.25929C22.0055 8.4272 21.3309 7.77214 20.5158 7.77214C19.7006 7.77214 19.026 8.42129 18.9473 9.25929C18.9417 9.3124 18.9417 9.37142 18.9417 9.42453C18.9417 10.3392 19.65 11.0769 20.5158 11.0769C20.9262 11.0769 21.3028 10.9117 21.5839 10.6343C21.9493 10.8291 22.3597 10.9412 22.7926 10.9412C23.3435 10.9412 23.8494 10.7701 24.2767 10.4691C24.8276 10.7701 25.4516 10.9412 26.115 10.9412C26.1712 10.9412 26.2274 10.9412 26.2836 10.9353C28.4142 10.8409 30.1176 8.99963 30.1176 6.73349C30.1176 4.47326 28.4142 2.63202 26.2836 2.5376C26.2274 2.5376 26.1712 2.5317 26.115 2.5317C25.5022 2.5317 24.9232 2.67923 24.4003 2.93299C23.8269 1.22749 22.281 0 20.4539 0C18.1434 0 16.2714 1.96517 16.2714 4.39064C16.2827 6.29679 17.4295 7.91377 19.0373 8.52752Z" fill="#036C17"/>
<path d="M28.733 9.6679C29.1658 10.1054 29.809 10.3848 30.5184 10.3848C31.8289 10.3848 32.8868 9.45704 32.8868 8.30788C32.8868 7.15872 31.8289 6.23096 30.5184 6.23096C30.5003 6.23096 30.4883 6.23096 30.4703 6.23096C30.4883 6.36274 30.4943 6.49453 30.4943 6.62631C30.5003 7.8809 29.803 8.98789 28.733 9.6679Z" fill="#036C17"/>
<path d="M46.8599 8.50184C47.0623 8.84507 47.1804 9.2344 47.1804 9.65447C47.1804 10.3409 46.8656 10.9608 46.3596 11.4013C46.6519 11.012 46.8206 10.5458 46.8206 10.0387C46.8206 8.70163 45.6287 7.6156 44.1614 7.6156C43.4474 7.6156 42.8009 7.87174 42.323 8.29181C41.9632 8.60942 41.699 9.01412 41.5809 9.47005C41.5134 9.4598 41.446 9.45468 41.3729 9.45468C40.5127 9.45468 39.81 10.0899 39.81 10.8788C39.81 11.6626 40.5071 12.3029 41.3729 12.3029C41.7945 12.3029 42.1824 12.1493 42.4635 11.8982C42.9245 12.2466 43.5205 12.4618 44.167 12.4618C44.7967 12.4618 45.3701 12.262 45.8255 11.9341C46.219 12.262 46.7363 12.4618 47.3097 12.4618C48.524 12.4618 49.5023 11.5653 49.5023 10.4639C49.5023 9.35735 48.5184 8.46598 47.3097 8.46598C47.1523 8.46086 47.0005 8.4711 46.8599 8.50184Z" fill="#036C17"/>
</svg>
